<svg width="20" height="20" viewBox="0 0 20 20" fill="none" xmlns="http://www.w3.org/2000/svg">
  <path fill-rule="evenodd" clip-rule="evenodd" d="M16.5 16.5C17.3284 16.5 18 17.1716 18 18C18 18.8284 17.3284 19.5 16.5 19.5C15.6716 19.5 15 18.8284 15 18C15 17.1716 15.6716 16.5 16.5 16.5ZM6.5 16.5C7.32843 16.5 8 17.1716 8 18C8 18.8284 7.32843 19.5 6.5 19.5C5.67157 19.5 5 18.8284 5 18C5 17.1716 5.67157 16.5 6.5 16.5ZM3 0.5C3.45887 0.5 3.85885 0.812297 3.97014 1.25746L4.78078 4.5H19C19.6506 4.5 20.1279 5.11139 19.9701 5.74254L17.9701 13.7425C17.8589 14.1877 17.4589 14.5 17 14.5H6C5.54113 14.5 5.14115 14.1877 5.02986 13.7425L2.21922 2.5H0.5C0.223858 2.5 0 2.27614 0 2V1C0 0.723858 0.223858 0.5 0.5 0.5H3ZM17.7192 6.5H5.28078L6.78078 12.5H16.2192L17.7192 6.5Z" fill="#703412"></path>
</svg>