<svg width="18" height="18" viewBox="0 0 18 18" fill="none" xmlns="http://www.w3.org/2000/svg">
  <path d="M16.5163 9.95401L17.2321 9.23818C17.4298 9.04051 17.4298 8.72003 17.2321 8.52236L9.35802 0.648252C9.16035 0.450582 8.83986 0.450582 8.64219 0.648252L0.768085 8.52236C0.570413 8.72003 0.570413 9.04051 0.768085 9.23818L1.48391 9.95401C1.68158 10.1517 2.00207 10.1517 2.19974 9.95401L7.98795 4.16768L7.98777 16.9938C7.98777 17.2734 8.21439 17.5 8.49393 17.5L9.50627 17.5C9.78582 17.5 10.0124 17.2734 10.0124 16.9938L10.0126 4.16363L15.8005 9.95401C15.9981 10.1517 16.3186 10.1517 16.5163 9.95401Z" fill="var(--color-icon-inverted-active)"></path>
</svg>