<svg class="" width="16" height="16" viewBox="0 0 16 16" fill="none" xmlns="http://www.w3.org/2000/svg">
  <path fill-rule="evenodd" clip-rule="evenodd" d="M10.785 1.85042C8.3178 -0.616806 4.31764 -0.616806 1.85042 1.85042C-0.616806 4.31764 -0.616806 8.3178 1.85042 10.785C4.07768 13.0123 7.55376 13.2288 10.0242 11.435L14.4529 15.8637C14.6347 16.0455 14.9294 16.0454 15.1112 15.8637L15.8636 15.1113C16.0454 14.9295 16.0454 14.6347 15.8636 14.4529L11.435 10.0243C13.2288 7.55379 13.0123 4.07769 10.785 1.85042ZM3.26114 3.26114C4.94924 1.57304 7.6862 1.57304 9.3743 3.26114C11.0613 4.94814 11.0624 7.68261 9.37762 9.37097L9.37097 9.37762C7.68261 11.0624 4.94814 11.0613 3.26114 9.3743C1.57304 7.6862 1.57304 4.94924 3.26114 3.26114Z" fill="#703412"></path>
</svg>