<svg class="" width="16" height="16" viewBox="0 0 16 16" fill="none" xmlns="http://www.w3.org/2000/svg">
  <path fill-rule="evenodd" clip-rule="evenodd" d="M1.98937 0.575158L7.9996 6.5856L14.0102 0.575158C14.2054 0.379895 14.522 0.379895 14.7173 0.575158L15.4244 1.28226C15.6197 1.47753 15.6197 1.79411 15.4244 1.98937L9.4136 7.9996L15.4244 14.0102C15.6197 14.2054 15.6197 14.522 15.4244 14.7173L14.7173 15.4244C14.522 15.6197 14.2054 15.6197 14.0102 15.4244L7.9996 9.4136L1.98937 15.4244C1.79411 15.6197 1.47753 15.6197 1.28226 15.4244L0.575158 14.7173C0.379895 14.522 0.379895 14.2054 0.575158 14.0102L6.5856 7.9996L0.575158 1.98937C0.379895 1.79411 0.379895 1.47753 0.575158 1.28226L1.28226 0.575158C1.47753 0.379895 1.79411 0.379895 1.98937 0.575158Z" fill="#703412"></path>
</svg>