<svg width="12" height="12" viewBox="0 0 12 12" fill="none" xmlns="http://www.w3.org/2000/svg">
  <path fill-rule="evenodd" clip-rule="evenodd" d="M6.4165 0.166748C6.64662 0.166748 6.83317 0.353296 6.83317 0.583415V5.16675H11.4165C11.6466 5.16675 11.8332 5.3533 11.8332 5.58341V6.41675C11.8332 6.64687 11.6466 6.83341 11.4165 6.83341H6.83234L6.83317 11.4167C6.83317 11.6469 6.64662 11.8334 6.4165 11.8334H5.58317C5.35305 11.8334 5.1665 11.6469 5.1665 11.4167L5.16567 6.83341H0.583171C0.353052 6.83341 0.166504 6.64687 0.166504 6.41675V5.58341C0.166504 5.3533 0.353052 5.16675 0.583171 5.16675H5.1665V0.583415C5.1665 0.353296 5.35305 0.166748 5.58317 0.166748H6.4165Z" fill="#703412"></path>
</svg>