<svg width="18" height="18" viewBox="0 0 18 18" fill="none" xmlns="http://www.w3.org/2000/svg">
  <path d="M9.95401 16.5159L9.23818 17.2318C9.04051 17.4294 8.72003 17.4294 8.52236 17.2318L0.648253 9.35765C0.450582 9.15998 0.450582 8.83949 0.648253 8.64182L8.52236 0.767719C8.72003 0.570047 9.04051 0.570047 9.23818 0.767719L9.95401 1.48355C10.1517 1.68122 10.1517 2.0017 9.95401 2.19937L4.16768 7.98758L16.9938 7.9874C17.2734 7.9874 17.5 8.21402 17.5 8.49357V9.5059C17.5 9.78545 17.2734 10.0121 16.9938 10.0121L4.16363 10.0122L9.95401 15.8001C10.1517 15.9978 10.1517 16.3183 9.95401 16.5159Z" fill="black"></path>
</svg>