<svg width="17" height="19" viewBox="0 0 17 19" fill="none" xmlns="http://www.w3.org/2000/svg">
  <path d="M16.8 8.1375V4.82417C15.2483 4.82417 14.0642 4.41 13.3 3.605C12.5157 2.68628 12.0763 1.52282 12.0575 0.315V0.0758334L8.925 0C8.925 0 8.925 0.134167 8.925 0.315V13.4575C8.81755 14.0447 8.53253 14.5847 8.10842 15.0048C7.68431 15.4248 7.14153 15.7046 6.55337 15.8064C5.9652 15.9082 5.35996 15.8271 4.81935 15.574C4.27875 15.3209 3.82881 14.908 3.53029 14.3911C3.23176 13.8742 3.09901 13.2782 3.14997 12.6835C3.20092 12.0887 3.43313 11.524 3.81523 11.0654C4.19734 10.6068 4.71095 10.2765 5.28673 10.1191C5.86251 9.96162 6.47272 9.98464 7.035 10.185V6.97667C6.70717 6.92295 6.37554 6.89564 6.04334 6.895C4.84808 6.895 3.67966 7.24944 2.68584 7.91349C1.69202 8.57754 0.91743 9.52138 0.460024 10.6257C0.00261838 11.7299 -0.11706 12.945 0.116124 14.1173C0.349307 15.2896 0.924879 16.3664 1.77005 17.2116C2.61523 18.0568 3.69205 18.6324 4.86434 18.8655C6.03663 19.0987 7.25175 18.979 8.35602 18.5216C9.46029 18.0642 10.4041 17.2896 11.0682 16.2958C11.7322 15.302 12.0867 14.1336 12.0867 12.9383C12.086 12.6907 12.0704 12.4433 12.04 12.1975V6.86C13.4644 7.74955 15.1216 8.19432 16.8 8.1375Z" fill="var(--color-icon-inverted-active)"></path>
</svg>